<?xml version="1.0" standalone="no"?>
<!DOCTYPE svg PUBLIC "-//W3C//DTD SVG 20010904//EN"
 "http://www.w3.org/TR/2001/REC-SVG-20010904/DTD/svg10.dtd">
<svg version="1.0" xmlns="http://www.w3.org/2000/svg"
 width="30.000000pt" height="30.000000pt" viewBox="0 0 300.000000 264.000000"
 preserveAspectRatio="xMidYMid meet">
<metadata>
Created by potrace 1.10, written by Peter Selinger 2001-2011
</metadata>
<g transform="translate(0.000000,264.000000) scale(0.100000,-0.100000)"
fill="#ffff00" stroke="none">
<path d="M1643 2360 l-791 -5 -39 -31 c-63 -50 -83 -101 -83 -216 l0 -98 -95
0 c-136 0 -191 -27 -238 -115 -22 -39 -22 -48 -25 -630 -2 -407 0 -604 8 -635
15 -61 52 -112 103 -141 l42 -24 790 0 c435 0 802 3 817 8 40 11 98 66 119
112 14 30 19 65 19 138 l0 97 100 0 c133 0 185 26 233 115 22 39 22 48 25 625
2 402 0 601 -8 636 -7 33 -23 66 -46 93 -40 46 -64 61 -109 70 -16 3 -386 4
-822 1z m852 -48 c17 -8 38 -22 49 -31 47 -42 47 -32 47 -690 0 -359 -4 -628
-10 -642 -12 -31 -58 -75 -94 -88 -16 -6 -68 -11 -116 -11 -120 0 -121 -1
-124 -127 -2 -95 -4 -104 -32 -145 -58 -83 0 -78 -893 -79 -889 0 -838 -5
-890 74 l-27 41 0 621 1 622 27 41 c40 61 75 75 192 80 55 2 106 9 113 14 8 7
12 40 12 98 0 125 26 182 102 221 34 18 74 19 779 19 408 0 744 2 746 4 8 8
89 -7 118 -22z"/>
<path d="M873 2226 l-33 -28 0 -98 c0 -68 4 -101 13 -107 6 -4 300 -10 652
-13 l640 -5 34 -30 c65 -58 63 -43 62 -526 -1 -306 2 -446 10 -463 11 -23 17
-25 102 -28 103 -3 141 11 154 59 12 41 4 1202 -8 1224 -5 10 -19 24 -31 30
-15 8 -234 12 -792 13 l-771 1 -32 -29z m1594 -18 l23 -21 0 -594 0 -594 -25
-24 c-22 -23 -32 -25 -110 -25 l-85 0 0 450 c0 384 -2 456 -15 488 -20 47 -50
79 -97 103 -35 18 -68 19 -669 19 l-631 0 4 91 c5 143 -86 129 816 129 l766 0
23 -22z"/>
<path d="M544 1897 c-12 -6 -30 -25 -40 -41 -18 -29 -19 -65 -19 -623 0 -326
3 -593 8 -593 4 0 7 -6 7 -13 0 -8 9 -22 20 -32 16 -15 45 -19 148 -25 210
-11 1202 -9 1202 2 0 6 46 9 119 7 131 -4 147 2 170 59 11 27 11 1157 0 1194
-7 24 -40 58 -56 58 -7 0 -13 4 -13 9 0 14 -1519 11 -1546 -2z m1549 -28 c14
-6 30 -22 36 -36 8 -17 11 -200 11 -602 0 -570 0 -579 -21 -605 l-20 -26 -772
0 -771 0 -23 22 -23 21 0 594 0 594 25 24 24 25 755 0 c532 0 762 -3 779 -11z
m-626 -1295 c-3 -3 -12 -4 -19 -1 -8 3 -5 6 6 6 11 1 17 -2 13 -5z"/>
<path d="M1274 1635 c-25 -25 -25 -27 -22 -175 l3 -149 -158 -3 c-153 -3 -160
-4 -178 -27 -25 -30 -24 -62 1 -89 20 -21 29 -22 178 -22 l157 0 -3 -132 c-2
-129 8 -194 32 -210 21 -14 73 -8 89 10 14 16 17 43 17 175 l0 157 161 2 162
3 20 27 c26 35 16 73 -24 93 -23 13 -60 16 -172 14 l-142 -1 -5 162 c-4 145
-7 163 -24 176 -30 21 -64 17 -92 -11z m87 -34 c0 -9 2 -78 2 -153 3 -183 -5
-177 194 -180 147 -3 148 -3 151 -27 2 -13 -1 -28 -7 -34 -6 -6 -62 -9 -144
-8 -195 3 -183 13 -190 -166 -5 -157 -9 -178 -35 -188 -34 -13 -43 17 -49 171
-4 113 -9 153 -21 167 -13 15 -35 17 -162 17 -150 0 -170 5 -170 41 0 26 20
29 172 29 188 0 191 3 186 204 -2 105 1 135 12 148 18 19 59 4 61 -21z"/>
<path d="M571 924 c0 -11 3 -14 6 -6 3 7 2 16 -1 19 -3 4 -6 -2 -5 -13z"/>
<path d="M1210 876 c0 -2 7 -7 16 -10 8 -3 12 -2 9 4 -6 10 -25 14 -25 6z"/>
<path d="M2866 937 c3 -10 9 -15 12 -12 3 3 0 11 -7 18 -10 9 -11 8 -5 -6z"/>
<path d="M3 130 c0 -36 2 -50 4 -32 2 17 2 47 0 65 -2 17 -4 3 -4 -33z"/>
</g>
</svg>
